<svg width="147" height="30" viewBox="0 0 147 30" fill="none" xmlns="http://www.w3.org/2000/svg">
<path d="M47.14 7.96V22H43.72V13.58L40.58 22H37.82L34.66 13.56V22H31.24V7.96H35.28L39.22 17.68L43.12 7.96H47.14ZM60.1194 16.24C60.1194 16.56 60.0994 16.8933 60.0594 17.24H52.3194C52.3727 17.9333 52.5927 18.4667 52.9794 18.84C53.3794 19.2 53.866 19.38 54.4394 19.38C55.2927 19.38 55.886 19.02 56.2194 18.3H59.8594C59.6727 19.0333 59.3327 19.6933 58.8394 20.28C58.3594 20.8667 57.7527 21.3267 57.0194 21.66C56.286 21.9933 55.466 22.16 54.5594 22.16C53.466 22.16 52.4927 21.9267 51.6394 21.46C50.786 20.9933 50.1194 20.3267 49.6394 19.46C49.1594 18.5933 48.9194 17.58 48.9194 16.42C48.9194 15.26 49.1527 14.2467 49.6194 13.38C50.0994 12.5133 50.766 11.8467 51.6194 11.38C52.4727 10.9133 53.4527 10.68 54.5594 10.68C55.6394 10.68 56.5994 10.9067 57.4394 11.36C58.2794 11.8133 58.9327 12.46 59.3994 13.3C59.8794 14.14 60.1194 15.12 60.1194 16.24ZM56.6194 15.34C56.6194 14.7533 56.4194 14.2867 56.0194 13.94C55.6194 13.5933 55.1194 13.42 54.5194 13.42C53.946 13.42 53.4594 13.5867 53.0594 13.92C52.6727 14.2533 52.4327 14.7267 52.3394 15.34H56.6194ZM68.7236 10.72C70.0303 10.72 71.0703 11.1467 71.8436 12C72.6303 12.84 73.0236 14 73.0236 15.48V22H69.6236V15.94C69.6236 15.1933 69.4303 14.6133 69.0436 14.2C68.6569 13.7867 68.1369 13.58 67.4836 13.58C66.8303 13.58 66.3103 13.7867 65.9236 14.2C65.5369 14.6133 65.3436 15.1933 65.3436 15.94V22H61.9236V10.84H65.3436V12.32C65.6903 11.8267 66.1569 11.44 66.7436 11.16C67.3303 10.8667 67.9903 10.72 68.7236 10.72ZM86.4202 10.84V22H83.0002V20.48C82.6535 20.9733 82.1802 21.3733 81.5802 21.68C80.9935 21.9733 80.3402 22.12 79.6202 22.12C78.7668 22.12 78.0135 21.9333 77.3602 21.56C76.7068 21.1733 76.2002 20.62 75.8402 19.9C75.4802 19.18 75.3002 18.3333 75.3002 17.36V10.84H78.7002V16.9C78.7002 17.6467 78.8935 18.2267 79.2802 18.64C79.6668 19.0533 80.1868 19.26 80.8402 19.26C81.5068 19.26 82.0335 19.0533 82.4202 18.64C82.8068 18.2267 83.0002 17.6467 83.0002 16.9V10.84H86.4202ZM89.6567 7.96H93.1567L90.9167 13.32H88.6167L89.6567 7.96ZM99.7058 22.16C98.7324 22.16 97.8658 21.9933 97.1058 21.66C96.3458 21.3267 95.7458 20.8733 95.3058 20.3C94.8658 19.7133 94.6191 19.06 94.5658 18.34H97.9458C97.9858 18.7267 98.1658 19.04 98.4858 19.28C98.8058 19.52 99.1991 19.64 99.6658 19.64C100.092 19.64 100.419 19.56 100.646 19.4C100.886 19.2267 101.006 19.0067 101.006 18.74C101.006 18.42 100.839 18.1867 100.506 18.04C100.172 17.88 99.6324 17.7067 98.8858 17.52C98.0858 17.3333 97.4191 17.14 96.8858 16.94C96.3524 16.7267 95.8924 16.4 95.5058 15.96C95.1191 15.5067 94.9258 14.9 94.9258 14.14C94.9258 13.5 95.0991 12.92 95.4458 12.4C95.8058 11.8667 96.3258 11.4467 97.0058 11.14C97.6991 10.8333 98.5191 10.68 99.4658 10.68C100.866 10.68 101.966 11.0267 102.766 11.72C103.579 12.4133 104.046 13.3333 104.166 14.48H101.006C100.952 14.0933 100.779 13.7867 100.486 13.56C100.206 13.3333 99.8324 13.22 99.3658 13.22C98.9658 13.22 98.6591 13.3 98.4458 13.46C98.2324 13.6067 98.1258 13.8133 98.1258 14.08C98.1258 14.4 98.2924 14.64 98.6258 14.8C98.9724 14.96 99.5058 15.12 100.226 15.28C101.052 15.4933 101.726 15.7067 102.246 15.92C102.766 16.12 103.219 16.4533 103.606 16.92C104.006 17.3733 104.212 17.9867 104.226 18.76C104.226 19.4133 104.039 20 103.666 20.52C103.306 21.0267 102.779 21.4267 102.086 21.72C101.406 22.0133 100.612 22.16 99.7058 22.16ZM115.058 19.52H109.818L108.978 22H105.398L110.478 7.96H114.438L119.518 22H115.898L115.058 19.52ZM114.178 16.88L112.438 11.74L110.718 16.88H114.178ZM124.484 12.42C124.818 11.9 125.278 11.48 125.864 11.16C126.451 10.84 127.138 10.68 127.924 10.68C128.844 10.68 129.678 10.9133 130.424 11.38C131.171 11.8467 131.758 12.5133 132.184 13.38C132.624 14.2467 132.844 15.2533 132.844 16.4C132.844 17.5467 132.624 18.56 132.184 19.44C131.758 20.3067 131.171 20.98 130.424 21.46C129.678 21.9267 128.844 22.16 127.924 22.16C127.151 22.16 126.464 22 125.864 21.68C125.278 21.36 124.818 20.9467 124.484 20.44V27.32H121.064V10.84H124.484V12.42ZM129.364 16.4C129.364 15.5467 129.124 14.88 128.644 14.4C128.178 13.9067 127.598 13.66 126.904 13.66C126.224 13.66 125.644 13.9067 125.164 14.4C124.698 14.8933 124.464 15.5667 124.464 16.42C124.464 17.2733 124.698 17.9467 125.164 18.44C125.644 18.9333 126.224 19.18 126.904 19.18C127.584 19.18 128.164 18.9333 128.644 18.44C129.124 17.9333 129.364 17.2533 129.364 16.4ZM138.058 12.42C138.392 11.9 138.852 11.48 139.438 11.16C140.025 10.84 140.712 10.68 141.498 10.68C142.418 10.68 143.252 10.9133 143.998 11.38C144.745 11.8467 145.332 12.5133 145.758 13.38C146.198 14.2467 146.418 15.2533 146.418 16.4C146.418 17.5467 146.198 18.56 145.758 19.44C145.332 20.3067 144.745 20.98 143.998 21.46C143.252 21.9267 142.418 22.16 141.498 22.16C140.725 22.16 140.038 22 139.438 21.68C138.852 21.36 138.392 20.9467 138.058 20.44V27.32H134.638V10.84H138.058V12.42ZM142.938 16.4C142.938 15.5467 142.698 14.88 142.218 14.4C141.752 13.9067 141.172 13.66 140.478 13.66C139.798 13.66 139.218 13.9067 138.738 14.4C138.272 14.8933 138.038 15.5667 138.038 16.42C138.038 17.2733 138.272 17.9467 138.738 18.44C139.218 18.9333 139.798 19.18 140.478 19.18C141.158 19.18 141.738 18.9333 142.218 18.44C142.698 17.9333 142.938 17.2533 142.938 16.4Z" fill="#1F1F1F"/>
<path d="M0 3H2.33333V26.3333H0V3ZM18.6667 3H3.5V26.3333H18.6667C19.9535 26.3333 21 25.2868 21 24V5.33333C21 4.0465 19.9535 3 18.6667 3ZM17.5 14.6667H7V12.3333H17.5V14.6667ZM17.5 10H7V7.66667H17.5V10Z" fill="#7CAB28"/>
</svg>
