<svg width="166" height="23" viewBox="0 0 166 23" fill="none" xmlns="http://www.w3.org/2000/svg">
<mask id="mask0_8_126" style="mask-type:luminance" maskUnits="userSpaceOnUse" x="0" y="0" width="166" height="23">
<path d="M165.4 0H0V22.4H165.4V0Z" fill="white"/>
</mask>
<g mask="url(#mask0_8_126)">
<path d="M158 13.3C157.8 12.7 157.5 12.1 157.2 11.5C156.9 11 156.5 10.6 156 10.2C155.1 9.5 154.1 9 153.1 8.8C152.6 8.7 152.2 8.6 151.7 8.6H142.8C142.3 8.6 141.9 8.5 141.5 8.1C141.2 7.7 141 7.2 141.1 6.8C141.1 6.3 141.2 5.8 141.6 5.4C141.9 5.1 142.4 4.9 142.9 4.9H156.5V-0.0999985H142.9C142.2 -0.0999985 141.4 -4.58956e-06 140.7 0.299995C139 0.799995 137.6 2 136.8 3.6C135.9 5.6 135.9 7.9 136.8 10C137.2 10.8 137.8 11.5 138.5 12.1C139.2 12.6 139.9 13 140.7 13.3C141.4 13.5 142.1 13.6 142.9 13.7H151.7C152 13.7 152.2 13.7 152.4 13.8C152.6 13.9 152.8 14 152.9 14.2C153.1 14.4 153.2 14.6 153.2 14.8C153.3 15 153.3 15.3 153.3 15.6C153.3 16.1 153.2 16.6 152.8 16.9C152.5 17.2 152 17.4 151.5 17.4H136.1V22.4H151.6C152.1 22.4 152.6 22.3 153 22.2C153.5 22.1 154 21.9 154.5 21.7C155 21.5 155.5 21.2 155.9 20.8C156.4 20.4 156.8 20 157.1 19.5C157.5 19 157.7 18.4 157.9 17.7C158.1 17 158.2 16.2 158.2 15.5C158.3 14.8 158.2 14 158 13.3Z" fill="#2E2D2C"/>
<path d="M44.7 2.7C43.8 1.9 42.8 1.2 41.7 0.699997C40.5 0.199997 39.2 0 38 0H32.8C31.5 0 30.2 0.199997 29.1 0.699997C28 1.2 27 1.8 26.1 2.7C25.2 3.6 24.6 4.6 24.1 5.7C23.6 6.9 23.4 8.2 23.4 9.5V12.9C23.4 14.2 23.6 15.5 24.1 16.7C24.6 17.8 25.2 18.8 26.1 19.7C27 20.6 28 21.2 29.1 21.7C30.3 22.2 31.6 22.4 32.8 22.4H38C39.3 22.4 40.6 22.2 41.7 21.7C42.8 21.3 43.8 20.6 44.7 19.7C45.6 18.8 46.2 17.8 46.7 16.7C47.2 15.5 47.4 14.2 47.4 12.9V9.5C47.4 8.2 47.2 6.9 46.7 5.7C46.3 4.6 45.6 3.5 44.7 2.7ZM32.8 5H38C38.6 5 39.2 5.1 39.8 5.3C40.8 5.7 41.7 6.5 42.1 7.6C42.3 8.2 42.4 8.8 42.4 9.4V12.8C42.4 13.4 42.3 14.1 42.1 14.6C41.9 15.1 41.6 15.6 41.2 16C40.8 16.4 40.3 16.7 39.8 16.9C39.2 17.1 38.6 17.2 38 17.2H32.8C32.2 17.2 31.6 17.1 31 16.9C30.5 16.7 30 16.4 29.6 16C29.2 15.6 28.9 15.1 28.7 14.6C28.5 14 28.4 13.4 28.4 12.8V9.4C28.4 8.8 28.5 8.1 28.7 7.6C28.9 7.1 29.2 6.6 29.6 6.2C30 5.8 30.5 5.5 31 5.3C31.6 5.1 32.2 5 32.8 5Z" fill="#2E2D2C"/>
<path d="M71.9 2.7C71 1.9 70 1.2 68.9 0.699997C67.7 0.199997 66.4 0 65.2 0H60C58.7 0 57.4 0.199997 56.3 0.699997C55.2 1.1 54.2 1.8 53.3 2.7C52.4 3.6 51.8 4.6 51.3 5.7C50.8 6.9 50.6 8.2 50.6 9.5V12.9C50.6 14.2 50.8 15.5 51.3 16.7C51.8 17.8 52.4 18.8 53.3 19.7C54.2 20.6 55.2 21.2 56.3 21.7C57.5 22.2 58.8 22.4 60 22.4H65.2C66.5 22.4 67.8 22.2 68.9 21.7C71.2 20.8 73 19 73.9 16.7C74.4 15.5 74.6 14.2 74.6 12.9V9.5C74.6 8.2 74.4 6.9 73.9 5.7C73.4 4.6 72.8 3.5 71.9 2.7ZM60 5H65.2C65.8 5 66.4 5.1 67 5.3C68 5.7 68.9 6.5 69.3 7.6C69.5 8.2 69.6 8.8 69.6 9.4V12.8C69.6 13.4 69.5 14.1 69.3 14.6C69.1 15.1 68.8 15.6 68.4 16C68 16.4 67.5 16.7 67 16.9C66.4 17.1 65.8 17.2 65.2 17.2H60C59.4 17.2 58.8 17.1 58.2 16.9C57.7 16.7 57.2 16.4 56.8 16C56.4 15.6 56.1 15.1 55.9 14.6C55.7 14 55.6 13.4 55.6 12.8V9.4C55.6 8.8 55.7 8.1 55.9 7.6C56.1 7.1 56.4 6.6 56.8 6.2C57.2 5.8 57.7 5.5 58.2 5.3C58.7 5.1 59.4 5 60 5Z" fill="#2E2D2C"/>
<path d="M97.6 2.7C96.7 1.9 95.7 1.2 94.6 0.699997C93.4 0.199997 92.1 0 90.9 0H80.5C80.2 0 79.8 0.0999969 79.5 0.199997C79.2 0.299997 78.9 0.499997 78.7 0.699997C78.5 0.899997 78.3 1.2 78.2 1.5C78.1 1.8 78 2.1 78 2.5V19.8C78 20.1 78.1 20.5 78.2 20.8C78.3 21.1 78.5 21.4 78.7 21.6C78.9 21.8 79.2 22 79.5 22.1C79.8 22.2 80.2 22.3 80.5 22.3H90.9C92.2 22.3 93.5 22.1 94.6 21.6C95.7 21.1 96.7 20.5 97.6 19.6C98.5 18.7 99.1 17.7 99.6 16.6C100.1 15.4 100.3 14.1 100.3 12.8V9.3C100.3 8 100.1 6.7 99.6 5.5C99.1 4.6 98.4 3.6 97.6 2.7ZM90.8 17.3H82.9V5H90.8C91.4 5 92 5.1 92.6 5.3C93.1 5.5 93.6 5.8 94 6.2C94.4 6.6 94.7 7.1 94.9 7.6C95.1 8.2 95.2 8.8 95.2 9.4V12.9C95.2 13.5 95.1 14.2 94.9 14.7C94.7 15.2 94.4 15.7 94 16.1C93.6 16.5 93.1 16.8 92.6 17C92.1 17.2 91.4 17.3 90.8 17.3Z" fill="#2E2D2C"/>
<path d="M108.7 0H103.7V22.3H108.7V0Z" fill="#2E2D2C"/>
<path d="M117.8 0.699997C115.5 1.6 113.7 3.4 112.8 5.7C112.3 6.9 112.1 8.2 112.1 9.5V12.9C112.1 14.2 112.3 15.5 112.8 16.7C113.7 19 115.5 20.8 117.8 21.7C119 22.2 120.3 22.4 121.5 22.4H132.4V17.4H121.5C120.9 17.4 120.3 17.3 119.7 17.1C119.2 16.9 118.7 16.6 118.3 16.2C117.9 15.8 117.6 15.3 117.4 14.8C117.2 14.2 117.1 13.6 117.1 13V9.6C117.1 9 117.2 8.3 117.4 7.8C117.6 7.3 117.9 6.8 118.3 6.4C118.7 6 119.2 5.7 119.7 5.5C120.3 5.3 120.9 5.2 121.5 5.2H132.4V0.199997H121.5C120.3 -2.77907e-06 119 0.299997 117.8 0.699997Z" fill="#2E2D2C"/>
<path d="M4.59999 17.9C4.39999 17.7 4.19999 17.6 3.89999 17.5C3.59999 17.4 3.39999 17.3 3.09999 17.3H1.99999C1.69999 17.3 1.39999 17.4 1.19999 17.5C0.699994 17.7 0.299994 18.1 0.0999937 18.6C-6.29574e-06 18.9 -0.100006 19.1 -0.100006 19.4V20.3C-0.100006 20.6 -6.29574e-06 20.9 0.0999937 21.1C0.199994 21.3 0.299993 21.6 0.499993 21.8C0.699993 22 0.899994 22.1 1.19999 22.2C1.49999 22.3 1.69999 22.4 1.99999 22.4H3.09999C3.39999 22.4 3.69999 22.3 3.89999 22.2C4.09999 22.1 4.39999 22 4.59999 21.8C4.79999 21.6 4.89999 21.4 4.99999 21.1C5.09999 20.8 5.19999 20.6 5.19999 20.3V19.4C5.19999 19.1 5.19999 18.8 4.99999 18.6C4.99999 18.3 4.79999 18.1 4.59999 17.9Z" fill="#2E2D2C"/>
<path d="M162 1.3H163.2C163.5 1.3 163.8 1.5 163.9 1.9C163.9 2.2 163.8 2.4 163.5 2.5C163.7 2.6 163.8 2.8 163.8 3C163.8 3.2 163.8 3.4 163.9 3.5H163.4C163.4 3.3 163.3 3.1 163.3 3C163.3 2.8 163.2 2.7 162.9 2.7H162.4V3.6H161.9L162 1.3ZM162.5 2.4H163C163.2 2.4 163.3 2.3 163.3 2.1C163.3 1.9 163.2 1.8 163 1.8H162.5V2.4Z" fill="#2E2D2C"/>
<path d="M162.9 5C161.5 5 160.4 3.9 160.4 2.5C160.4 1.1 161.5 0 162.9 0C164.3 0 165.4 1.1 165.4 2.5C165.4 3.9 164.3 5 162.9 5ZM162.9 0.599998C161.8 0.599998 160.9 1.5 160.9 2.6C160.9 3.7 161.8 4.6 162.9 4.6C164 4.6 164.9 3.7 164.9 2.6C164.9 1.4 164 0.599998 162.9 0.599998Z" fill="#2E2D2C"/>
<path d="M5.1 6.5C5.1 5.7 5.7 5.1 6.5 5.1H20.3V0H6.6C2.9 0 0 3 0 6.6V8.8C0 12.5 3 15.4 6.6 15.4H13.8V10.3H6.5C5.7 10.3 5.1 9.7 5.1 8.9V6.5Z" fill="#2E2D2C"/>
</g>
</svg>
