<svg width="180" height="44" viewBox="0 0 180 44" fill="none" xmlns="http://www.w3.org/2000/svg">
<g clip-path="url(#clip0_8_70)">
<path fill-rule="evenodd" clip-rule="evenodd" d="M75.4315 42.5839V32.985H73.6056V36.1233C73.1692 35.6507 72.7006 35.4407 72.0381 35.4407C70.5035 35.4407 69.6631 36.675 69.6631 39.091C69.6631 41.5071 70.5035 42.7547 72.0381 42.7547C72.7493 42.7547 73.2662 42.4789 73.7025 41.9276V42.5839H75.4315ZM73.6056 40.785C73.2985 41.2971 72.9267 41.5596 72.5878 41.5596C71.7797 41.5596 71.5213 40.7587 71.5213 39.091C71.5213 37.4234 71.7797 36.6354 72.5878 36.6354C72.9108 36.6354 73.2825 36.8721 73.6056 37.3579V40.785Z" fill="#1B1A1F"/>
<path fill-rule="evenodd" clip-rule="evenodd" d="M77.2812 42.5839H79.0748V35.5586H77.2812V42.5839ZM77.2812 34.3243H79.0748V32.985H77.2812V34.3243Z" fill="#1B1A1F"/>
<path fill-rule="evenodd" clip-rule="evenodd" d="M82.4125 38.1455C82.5258 37.1346 82.8324 36.6487 83.4144 36.6487C83.9958 36.6487 84.3676 37.1608 84.3676 38.1455H82.4125ZM84.3835 39.9578C84.3676 40.982 84.0281 41.5071 83.4144 41.5071C82.7355 41.5071 82.3638 40.772 82.3638 39.3535C82.3638 39.3273 82.3638 39.2877 82.3638 39.2615H86.1124C86.1447 38.9993 86.1447 38.7493 86.1447 38.5134C86.1447 36.4778 85.1592 35.4011 83.4144 35.4011C81.5239 35.4011 80.522 36.6354 80.522 39.0781C80.522 41.5204 81.5239 42.7414 83.4144 42.7414C85.0782 42.7414 86.0801 41.77 86.1447 39.9578H84.3835Z" fill="#1B1A1F"/>
<path fill-rule="evenodd" clip-rule="evenodd" d="M92.5427 38.1455C92.656 37.1346 92.9627 36.6487 93.5446 36.6487C94.1261 36.6487 94.4978 37.1608 94.4978 38.1455H92.5427ZM94.5137 39.9578C94.4978 40.982 94.1584 41.5071 93.5446 41.5071C92.8658 41.5071 92.494 40.772 92.494 39.3535C92.494 39.3273 92.494 39.2877 92.494 39.2615H96.2427C96.275 38.9993 96.275 38.7493 96.275 38.5134C96.275 36.4778 95.2895 35.4011 93.5446 35.4011C91.6536 35.4011 90.6522 36.6354 90.6522 39.0781C90.6522 41.5204 91.6536 42.7414 93.5446 42.7414C95.2085 42.7414 96.2104 41.77 96.275 39.9578H94.5137Z" fill="#1B1A1F"/>
<path d="M97.2466 40.7587C97.5696 42.0321 98.5392 42.7414 99.9611 42.7414C101.512 42.7414 102.546 41.9142 102.546 40.7587C102.546 40.0103 102.11 39.4586 101.189 38.8677C100.026 38.1322 99.1371 37.778 99.1371 37.1608C99.1371 36.8062 99.4924 36.5303 99.9934 36.5303C100.559 36.5303 100.866 36.8195 100.979 37.4367L102.482 37.2262C102.207 36.0578 101.27 35.4011 99.9447 35.4011C98.4905 35.4011 97.4886 36.1891 97.4886 37.2921C97.4886 38.0276 98.0219 38.6051 99.0561 39.2877C100.123 39.984 100.898 40.3124 100.898 40.8899C100.898 41.2971 100.543 41.5729 100.009 41.5729C99.4278 41.5729 98.9592 41.1791 98.7817 40.4436L97.2466 40.7587Z" fill="#1B1A1F"/>
<path d="M103.438 40.7587C103.761 42.0321 104.731 42.7414 106.153 42.7414C107.704 42.7414 108.738 41.9142 108.738 40.7587C108.738 40.0103 108.302 39.4586 107.381 38.8677C106.217 38.1322 105.329 37.778 105.329 37.1608C105.329 36.8062 105.685 36.5303 106.185 36.5303C106.751 36.5303 107.058 36.8195 107.171 37.4367L108.673 37.2262C108.399 36.0578 107.461 35.4011 106.137 35.4011C104.682 35.4011 103.681 36.1891 103.681 37.2921C103.681 38.0276 104.214 38.6051 105.248 39.2877C106.314 39.984 107.09 40.3124 107.09 40.8899C107.09 41.2971 106.734 41.5729 106.202 41.5729C105.62 41.5729 105.151 41.1791 104.974 40.4436L103.438 40.7587Z" fill="#1B1A1F"/>
<path fill-rule="evenodd" clip-rule="evenodd" d="M111.585 38.1455C111.699 37.1346 112.006 36.6487 112.587 36.6487C113.169 36.6487 113.541 37.1608 113.541 38.1455H111.585ZM113.557 39.9578C113.541 40.982 113.201 41.5071 112.587 41.5071C111.909 41.5071 111.537 40.772 111.537 39.3535C111.537 39.3273 111.537 39.2877 111.537 39.2615H115.286C115.318 38.9993 115.318 38.7493 115.318 38.5134C115.318 36.4778 114.332 35.4011 112.587 35.4011C110.697 35.4011 109.695 36.6354 109.695 39.0781C109.695 41.5204 110.697 42.7414 112.587 42.7414C114.252 42.7414 115.254 41.77 115.318 39.9578H113.557Z" fill="#1B1A1F"/>
<path d="M116.774 42.5839H118.568V37.1608C118.858 36.8195 119.23 36.5962 119.731 36.5962C120.103 36.5962 120.28 36.872 120.28 37.4367V42.5839H122.09V37.5021C122.09 36.097 121.767 35.4011 120.458 35.4011C119.747 35.4011 119.085 35.7032 118.406 36.2941V35.5586H116.774V42.5839Z" fill="#1B1A1F"/>
<path d="M123.447 40.7587C123.77 42.0321 124.74 42.7414 126.162 42.7414C127.713 42.7414 128.747 41.9142 128.747 40.7587C128.747 40.0103 128.311 39.4586 127.39 38.8677C126.226 38.1322 125.338 37.778 125.338 37.1608C125.338 36.8062 125.693 36.5303 126.194 36.5303C126.759 36.5303 127.067 36.8195 127.179 37.4367L128.682 37.2262C128.407 36.0578 127.47 35.4011 126.146 35.4011C124.691 35.4011 123.689 36.1891 123.689 37.2921C123.689 38.0276 124.222 38.6051 125.257 39.2877C126.323 39.984 127.098 40.3124 127.098 40.8899C127.098 41.2971 126.743 41.5729 126.21 41.5729C125.628 41.5729 125.16 41.1791 124.982 40.4436L123.447 40.7587Z" fill="#1B1A1F"/>
<path d="M130.123 42.5839H131.917V37.5021C132.305 37.0033 132.757 36.78 133.388 36.78C133.646 36.78 133.921 36.8587 134.276 37.0033V35.414C134.131 35.4011 134.001 35.3878 133.872 35.3878C132.999 35.3878 132.37 35.7165 131.755 36.3862V35.5586H130.123V42.5839Z" fill="#1B1A1F"/>
<path fill-rule="evenodd" clip-rule="evenodd" d="M136.757 38.1455C136.871 37.1346 137.177 36.6487 137.759 36.6487C138.341 36.6487 138.712 37.1608 138.712 38.1455H136.757ZM138.728 39.9578C138.712 40.982 138.373 41.5071 137.759 41.5071C137.081 41.5071 136.709 40.772 136.709 39.3535C136.709 39.3273 136.709 39.2877 136.709 39.2615H140.457C140.49 38.9993 140.49 38.7493 140.49 38.5134C140.49 36.4778 139.504 35.4011 137.759 35.4011C135.869 35.4011 134.867 36.6354 134.867 39.0781C134.867 41.5204 135.869 42.7414 137.759 42.7414C139.423 42.7414 140.425 41.77 140.49 39.9578H138.728Z" fill="#1B1A1F"/>
<path d="M141.106 36.7404H142.059V40.5749C142.059 42.0455 142.495 42.7547 144.014 42.7547C144.272 42.7547 144.579 42.7285 144.935 42.676V41.4546C144.838 41.4546 144.741 41.4679 144.644 41.4679C143.869 41.4679 143.82 41.1791 143.82 40.3911V36.7404H144.983V35.5586H143.82V33.6417H142.059V35.5586H141.106V36.7404Z" fill="#1B1A1F"/>
<path d="M145.246 36.7404H146.199V40.5749C146.199 42.0455 146.636 42.7547 148.154 42.7547C148.413 42.7547 148.72 42.7285 149.075 42.676V41.4546C148.978 41.4546 148.882 41.4679 148.785 41.4679C148.009 41.4679 147.961 41.1791 147.961 40.3911V36.7404H149.124V35.5586H147.961V33.6417H146.199V35.5586H145.246V36.7404Z" fill="#1B1A1F"/>
<path fill-rule="evenodd" clip-rule="evenodd" d="M151.697 38.1455C151.81 37.1346 152.117 36.6487 152.699 36.6487C153.28 36.6487 153.652 37.1608 153.652 38.1455H151.697ZM153.668 39.9578C153.652 40.982 153.313 41.5071 152.699 41.5071C152.02 41.5071 151.648 40.772 151.648 39.3535C151.648 39.3273 151.648 39.2877 151.648 39.2615H155.397C155.429 38.9993 155.429 38.7493 155.429 38.5134C155.429 36.4778 154.444 35.4011 152.699 35.4011C150.808 35.4011 149.807 36.6354 149.807 39.0781C149.807 41.5204 150.808 42.7414 152.699 42.7414C154.363 42.7414 155.365 41.77 155.429 39.9578H153.668Z" fill="#1B1A1F"/>
<path d="M156.886 42.5839H158.679V37.5021C159.067 37.0033 159.519 36.78 160.149 36.78C160.408 36.78 160.683 36.8587 161.038 37.0033V35.414C160.893 35.4011 160.764 35.3878 160.634 35.3878C159.762 35.3878 159.131 35.7165 158.518 36.3862V35.5586H156.886V42.5839Z" fill="#1B1A1F"/>
<path d="M76.3376 9.48222V23.2666C76.3376 24.162 76.4141 24.7477 76.5677 25.0231C76.7217 25.2909 77.0219 25.4238 77.4702 25.4238C77.9313 25.4238 78.2325 25.2998 78.3732 25.0522C78.5272 24.8046 78.6043 24.2715 78.6043 23.4524L78.6038 9.48222H86.4197V23.2666C86.4197 24.162 86.4992 24.7477 86.6572 25.0231C86.8153 25.2909 87.1259 25.4238 87.5871 25.4238C88.0622 25.4238 88.3718 25.2998 88.5169 25.0522C88.6754 24.8046 88.754 24.2715 88.754 23.4524V9.48222H95.153V20.7811C95.153 22.4859 95.0477 23.7375 94.8369 24.538C94.6262 25.3285 94.1745 26.0712 93.4837 26.7667C92.7924 27.4521 91.9013 27.9618 90.8119 28.295C89.7335 28.6185 88.4911 28.7805 87.0856 28.7805C85.5147 28.7805 83.3538 28.3225 82.3842 27.4949C80.9783 28.3621 79.3701 28.7805 77.9637 28.7805C76.3937 28.7805 75.0643 28.6424 73.9744 28.3657C72.8846 28.0806 72.0347 27.6569 71.425 27.0947C70.8276 26.5236 70.3997 25.8382 70.1423 25.0377C69.8843 24.2283 69.7556 23.0194 69.7556 21.4095V9.48222H76.3376Z" fill="#1B1A1F"/>
<path d="M11.8311 5.31044V8.23945C10.3665 8.23945 9.49881 8.2964 9.22994 8.4107C8.97201 8.51531 8.8428 8.8251 8.8428 9.33884V9.93943H11.8311V12.9387H10.1434V28.4376H3.04311V12.9387H1.5835V9.93943H3.04311C3.04311 8.69181 3.09529 7.85899 3.20065 7.43935C3.30601 7.02051 3.56344 6.64934 3.97394 6.32501C4.39587 5.9918 4.98181 5.73978 5.73224 5.56812C6.48118 5.39647 7.64708 5.31044 9.22994 5.31044H11.8311Z" fill="#F5A301"/>
<path fill-rule="evenodd" clip-rule="evenodd" d="M29.25 16.1383V20.7811C29.25 22.4859 29.1447 23.7375 28.9335 24.538C28.7233 25.3285 28.271 26.0712 27.5802 26.7667C26.8884 27.4521 25.9983 27.9618 24.9085 28.295C23.83 28.6185 22.5881 28.7805 21.1822 28.7805C19.6117 28.7805 18.2823 28.6424 17.192 28.3657C16.1021 28.0806 15.2523 27.6569 14.6435 27.0947C14.0461 26.5236 13.6177 25.8382 13.3603 25.0377C13.1019 24.2283 12.9736 23.0194 12.9736 21.4095V16.5531C12.9736 14.7914 13.2077 13.4153 13.6764 12.4246C14.145 11.4346 14.9889 10.6398 16.2074 10.0388C17.426 9.439 18.984 9.13932 20.8835 9.13932C22.4768 9.13932 23.8415 9.3348 24.9786 9.72536C26.1266 10.1062 27.0117 10.6062 27.6329 11.2246C28.2536 11.8442 28.675 12.4819 28.8987 13.1386C29.1323 13.7962 29.2496 14.7962 29.25 16.1383ZM22.28 14.7102C22.28 13.7384 22.2069 13.1293 22.0618 12.8822C21.9167 12.6249 21.6076 12.496 21.1325 12.496C20.6579 12.496 20.3408 12.6249 20.1827 12.8822C20.0242 13.1293 19.9452 13.7384 19.9452 14.7102V23.2666C19.9452 24.162 20.0242 24.7477 20.1827 25.0231C20.3408 25.2909 20.6504 25.4238 21.1126 25.4238C21.5872 25.4238 21.8968 25.2998 22.0424 25.0522C22.2005 24.8046 22.28 24.2715 22.28 23.4524V14.7102Z" fill="#F5A301"/>
<path fill-rule="evenodd" clip-rule="evenodd" d="M47.653 16.1383V20.7811C47.653 22.4859 47.5472 23.7375 47.3364 24.538C47.1257 25.3285 46.6745 26.0712 45.9832 26.7667C45.2919 27.4521 44.4013 27.9618 43.3119 28.295C42.2335 28.6185 40.9911 28.7805 39.5851 28.7805C38.0147 28.7805 36.6853 28.6424 35.5949 28.3657C34.5055 28.0806 33.6557 27.6569 33.0469 27.0947C32.4491 26.5236 32.0212 25.8382 31.7632 25.0377C31.5058 24.2283 31.3761 23.0194 31.3761 21.4095V16.5531C31.3761 14.7914 31.6107 13.4153 32.0798 12.4246C32.5485 11.4346 33.3918 10.6398 34.6114 10.0388C35.8295 9.439 37.3875 9.13932 39.2864 9.13932C40.8797 9.13932 42.2449 9.3348 43.382 9.72536C44.5295 10.1062 45.4146 10.6062 46.0359 11.2246C46.6566 11.8442 47.0785 12.4819 47.3011 13.1386C47.5357 13.7962 47.652 14.7962 47.653 16.1383ZM40.7177 14.7102C40.7177 13.7384 40.6422 13.1293 40.4931 12.8822C40.3435 12.6249 40.024 12.496 39.5359 12.496C39.0469 12.496 38.7209 12.6249 38.5569 12.8822C38.3949 13.1293 38.3129 13.7384 38.3129 14.7102V23.2666C38.3129 24.162 38.3949 24.7477 38.5569 25.0231C38.7209 25.2909 39.0394 25.4238 39.515 25.4238C40.0041 25.4238 40.3231 25.2998 40.4727 25.0522C40.6362 24.8046 40.7177 24.2715 40.7177 23.4524V14.7102Z" fill="#F5A301"/>
<path fill-rule="evenodd" clip-rule="evenodd" d="M66.1444 5.31044V28.4376H59.0431V27.066C58.3633 27.6375 57.6481 28.066 56.8987 28.3516C56.1483 28.6375 55.363 28.7805 54.543 28.7805C53.4407 28.7805 52.487 28.5475 51.6785 28.0806C50.8694 27.6048 50.3476 27.0567 50.1135 26.4375C49.8904 25.8192 49.78 24.8095 49.78 23.4092V14.5385C49.78 13.0817 49.8904 12.0489 50.1135 11.4391C50.3476 10.8296 50.8759 10.2969 51.6954 9.83926C52.5159 9.37277 53.4944 9.13973 54.6315 9.13932C55.5096 9.13932 56.3128 9.26776 57.0388 9.52463C57.7768 9.78232 58.4453 10.1676 59.0431 10.6818V5.31044H66.1444ZM59.1783 14.253C59.1783 13.5583 59.0918 13.0914 58.9209 12.8531C58.7628 12.6148 58.4393 12.4965 57.9518 12.4961C57.4767 12.4961 57.1536 12.6059 56.9822 12.8248C56.8236 13.034 56.7456 13.5102 56.7456 14.253V23.538C56.7456 24.3094 56.8236 24.8196 56.9822 25.0667C57.1407 25.3046 57.4434 25.4238 57.8926 25.4238C58.407 25.4238 58.7494 25.2909 58.9209 25.0231C59.0918 24.7477 59.1778 24.0816 59.1783 23.0235V14.253Z" fill="#F5A301"/>
<path fill-rule="evenodd" clip-rule="evenodd" d="M104.095 16.8245H97.433V15.5527C97.433 14.0866 97.6377 12.9581 98.0477 12.1677C98.4702 11.3672 99.3076 10.6632 100.562 10.0533C101.815 9.44385 103.443 9.13972 105.448 9.13932C107.851 9.13932 109.66 9.48707 110.879 10.1822C112.098 10.868 112.83 11.7153 113.076 12.7242C113.322 13.7247 113.445 15.7914 113.445 18.924V28.4376H106.538V26.7526C106.104 27.4279 105.541 27.938 104.85 28.2805C104.17 28.6137 103.356 28.7805 102.407 28.7805C101.165 28.7805 100.022 28.499 98.9796 27.938C97.9483 27.3661 97.433 26.1233 97.433 24.2097V22.6523C97.433 21.2338 97.7078 20.2673 98.259 19.7528C98.8096 19.2382 100.174 18.6384 102.355 17.9526C104.686 17.2099 105.934 16.7098 106.098 16.453C106.262 16.1961 106.344 15.6722 106.345 14.8818C106.345 13.8915 106.25 13.2485 106.063 12.9533C105.888 12.6487 105.589 12.4965 105.166 12.496C104.686 12.496 104.387 12.6249 104.27 12.8822C104.153 13.1293 104.095 13.7816 104.095 14.8386V16.8245ZM106.345 19.4244C105.207 20.1001 104.545 20.6672 104.358 21.124C104.182 21.5808 104.095 22.2379 104.095 23.0949C104.095 24.0764 104.17 24.7093 104.323 24.9948C104.487 25.2808 104.803 25.4238 105.272 25.4238C105.717 25.4238 106.004 25.3143 106.134 25.0954C106.274 24.8664 106.345 24.2767 106.345 23.3239V19.4244Z" fill="#1B1A1F"/>
<path d="M123.377 6.95347V9.93943H125.292V12.9387H123.377V28.4376H116.257V12.9387H114.729V9.93943H116.257V6.95347H123.377Z" fill="#1B1A1F"/>
<path d="M142.553 16.6383H136.014V14.4529C136.014 13.6916 135.928 13.177 135.757 12.9104C135.585 12.6342 135.269 12.4965 134.808 12.496C134.345 12.496 134.036 12.6148 133.877 12.8531C133.719 13.0914 133.64 13.6245 133.64 14.4529V23.3946C133.64 24.0711 133.759 24.5805 133.997 24.9238C134.234 25.2574 134.583 25.4238 135.045 25.4238C135.585 25.4238 135.948 25.2473 136.133 24.8951C136.331 24.5429 136.43 23.8765 136.43 22.895V20.6381H142.553C142.541 22.1523 142.471 23.2912 142.343 24.0526C142.225 24.8046 141.833 25.5805 141.165 26.381C140.508 27.1714 139.648 27.7712 138.581 28.1807C137.514 28.5806 136.196 28.7805 134.626 28.7805C132.622 28.7805 131.034 28.5038 129.862 27.9513C128.69 27.3899 127.858 26.6096 127.366 25.6092C126.886 24.5998 126.646 23.1717 126.646 21.3239V15.9388C126.646 14.3293 126.845 13.1152 127.244 12.2957C127.642 11.477 128.491 10.7488 129.792 10.1103C131.093 9.46283 132.434 9.13972 134.531 9.13932C136.614 9.13932 137.971 9.45799 139.284 10.0965C140.596 10.7347 141.469 11.5392 141.902 12.5106C142.336 13.4815 142.552 14.858 142.553 16.6383Z" fill="#1B1A1F"/>
<path d="M151.763 5.31044V10.5105C152.372 10.0533 153.028 9.71083 153.732 9.48223C154.447 9.25403 155.208 9.13932 156.017 9.13932C157.259 9.13932 158.313 9.3962 159.18 9.91075C160.06 10.4249 160.593 11.0202 160.78 11.6959C160.98 12.3632 161.079 13.5866 161.079 15.3673V28.4376H154.117V15.0959C154.117 13.9917 154.038 13.282 153.88 12.9674C153.735 12.6528 153.399 12.4961 152.87 12.4961C152.383 12.4961 152.053 12.658 151.882 12.9819C151.71 13.3059 151.625 13.9484 151.625 14.9101V28.4376H144.662V5.31044H151.763Z" fill="#1B1A1F"/>
<path d="M177.896 7.90018C177.896 11.3413 174.591 14.1314 170.514 14.1314C166.437 14.1314 163.132 11.3413 163.132 7.90018C163.132 4.45863 166.437 1.66856 170.514 1.66856C174.591 1.66856 177.896 4.45863 177.896 7.90018Z" fill="white" stroke="#1B1A1F" stroke-width="5.92588"/>
<path d="M171 5.67596C171.372 5.51845 172.267 5.31408 172.917 5.45382C174.775 5.85044 175.295 6.93812 175.382 8.45837C175.49 10.3252 173.819 12.1536 171.532 11.9859C171.165 11.9589 170.835 11.824 170.516 11.6867C170.196 11.824 169.866 11.9589 169.499 11.9859C167.137 12.1592 165.856 10.1054 165.905 8.1813C165.943 6.6243 166.853 5.15212 168.763 5.01197C169.267 4.97481 169.871 5.00874 170.384 5.31408" fill="#1B1A1F"/>
<path d="M170.658 6.5108C171.143 6.12428 171.857 5.84277 172.541 5.89891C173.906 6.01038 174.759 7.0601 174.733 8.65304C174.705 10.2961 173.007 11.5154 171.603 11.4124C171.204 11.3829 170.801 11.2347 170.521 10.9459C170.214 11.2226 169.838 11.3829 169.441 11.4124C168.035 11.5154 166.759 10.292 166.591 8.6797C166.422 7.06817 167.424 5.67758 168.83 5.57539C169.446 5.52975 170.283 5.89891 170.658 6.5108Z" fill="#F5A301"/>
<path d="M169.085 6.3961C168.694 6.43528 168.306 6.75475 167.983 7.15541C167.885 7.27819 167.72 7.30768 167.587 7.26285C167.417 7.20671 167.393 7.02415 167.468 6.89409C167.745 6.41952 168.353 5.99907 169.014 5.93284C169.189 5.91506 169.298 6.00311 169.329 6.1057C169.365 6.22929 169.291 6.3755 169.085 6.3961Z" fill="#1B1A1F"/>
<path d="M170.451 5.43645C170.451 5.43645 170.49 5.07618 171.037 4.47318C171.597 3.69649 172.987 3.27079 172.987 3.27079L172.858 4.46267C172.858 4.46267 172.072 4.43481 171.571 4.92998C171.108 5.3997 171.027 5.84075 171.027 5.84075" fill="#1B1A1F"/>
</g>
<defs>
<clipPath id="clip0_8_70">
<rect width="180" height="44" fill="white"/>
</clipPath>
</defs>
</svg>
