<svg width="180" height="52" viewBox="0 0 180 52" fill="none" xmlns="http://www.w3.org/2000/svg">
<g clip-path="url(#clip0_8_38)">
<path d="M-0.00769043 21.5473H4.07485V18.6083C4.07485 16.3521 5.00692 14.5116 6.87107 13.0866C8.73522 11.6617 11.1772 10.9492 14.1972 10.9492C16.3968 10.9492 18.7829 11.2609 21.3555 11.8843L20.4048 17.2279C19.5473 17.0498 18.783 16.9607 18.1119 16.9607C15.3903 16.9607 14.0294 17.97 14.0294 19.9887V21.5473H20.4607V28.0041H14.0294V43.6786H4.07485V28.0041H-0.00769043V21.5473Z" fill="#145B8F"/>
<path d="M34.9521 20.9804C30.5529 20.9804 26.9359 22.0787 24.1026 24.2755C21.3065 26.4425 19.9083 29.2331 19.9083 32.647C19.9083 36.0906 21.3064 38.911 24.1026 41.1078C26.8988 43.3045 30.5156 44.4028 34.9521 44.4028C39.3886 44.4028 43.0049 43.3194 45.801 41.1524C48.6345 38.9556 50.0513 36.1203 50.0513 32.6473C50.0513 31.3074 49.8299 30.0648 49.3924 28.9175C49.0875 28.9766 48.775 29.007 48.4612 29.0081C47.8326 29.0074 47.2131 28.8894 46.6523 28.6633C46.0915 28.4373 45.6051 28.1097 45.2322 27.7068C44.9657 27.7518 44.6941 27.7749 44.4216 27.7761C43.356 27.7761 42.3341 27.4391 41.5807 26.8391C40.8272 26.2392 40.404 25.4255 40.404 24.5771C40.4051 24.4877 40.4109 24.3983 40.4214 24.3093C39.7583 24.0428 39.2009 23.6352 38.8113 23.1317C38.4216 22.6282 38.2148 22.0486 38.2139 21.4572C38.215 21.3736 38.2202 21.29 38.2295 21.2067C37.1912 21.0588 36.1009 20.9804 34.9521 20.9804ZM34.9521 27.5265C36.6299 27.5265 38.0092 28.0011 39.0904 28.951C40.1716 29.901 40.7123 31.133 40.7123 32.647C40.7123 34.161 40.1529 35.4079 39.0345 36.3877C37.9533 37.3376 36.5926 37.8127 34.9522 37.8127C33.3119 37.8127 31.9511 37.3227 30.8699 36.3431C29.7887 35.3635 29.2481 34.1314 29.2481 32.6471C29.2481 31.1331 29.7887 29.9009 30.8699 28.9511C31.9511 28.0011 33.3118 27.5265 34.9521 27.5265Z" fill="#145B8F"/>
<path d="M67.6609 20.9684C72.0975 20.9684 75.714 22.0668 78.5102 24.2636C81.3437 26.4307 82.7605 29.2212 82.7605 32.6352C82.7605 36.1085 81.3437 38.9435 78.5102 41.1403C75.714 43.3075 72.0975 44.391 67.6609 44.391C63.2242 44.391 59.6077 43.2926 56.8115 41.0958C54.0153 38.899 52.6172 36.0788 52.6172 32.6352C52.6172 29.2212 54.0153 26.4307 56.8115 24.2636C59.645 22.0668 63.2615 20.9684 67.6609 20.9684ZM61.9566 32.6352C61.9566 34.1195 62.4973 35.3515 63.5785 36.3311C64.6597 37.3108 66.0204 37.8006 67.6609 37.8006C69.3013 37.8006 70.6622 37.3256 71.7434 36.3757C72.8619 35.396 73.4211 34.1492 73.4211 32.6352C73.4211 31.1212 72.8806 29.8892 71.7994 28.9392C70.7182 27.9892 69.3386 27.5143 67.6609 27.5143C66.0204 27.5143 64.6597 27.9892 63.5785 28.9392C62.4973 29.8892 61.9566 31.1212 61.9566 32.6352Z" fill="#145B8F"/>
<path d="M105.27 11.5726H115.281L115.336 43.6785H105.27V40.7396C104.338 43.1442 101.765 44.3465 97.5524 44.3465C93.9733 44.3465 91.0465 43.2481 88.7723 41.0513C86.498 38.8545 85.361 36.0194 85.361 32.5461C85.361 29.2212 86.5539 26.4604 88.94 24.2636C91.3634 22.0371 94.3648 20.9238 97.944 20.9238C100.74 20.9238 102.586 21.2949 103.48 22.0371C104.375 22.7793 104.972 23.4472 105.27 24.0409V11.5726ZM95.0918 32.7242C95.0918 34.2382 95.5952 35.4702 96.6018 36.4202C97.6457 37.3405 98.9879 37.8006 100.628 37.8006C102.269 37.8006 103.592 37.3405 104.599 36.4202C105.606 35.4702 106.109 34.2382 106.109 32.7242C106.109 31.1508 105.606 29.8892 104.599 28.9392C103.592 27.9892 102.269 27.5142 100.628 27.5142C98.9879 27.5142 97.6457 28.0041 96.6018 28.9837C95.5952 29.9337 95.0918 31.1805 95.0918 32.7242Z" fill="#145B8F"/>
<path d="M126.801 31.9672L116.735 21.5473H128.646L131.499 25.0206C132.095 25.7034 132.505 26.6682 132.729 27.915C132.915 27.1729 133.083 26.6237 133.232 26.2674C133.381 25.8815 133.643 25.4659 134.015 25.0206L136.867 21.5473H148.779L138.657 31.9672L149.842 43.6785H137.93L134.183 39.3592C133.549 38.617 133.065 37.6225 132.729 36.3757C132.58 37.0288 132.412 37.5186 132.226 37.8451C132.077 38.1717 131.722 38.6764 131.163 39.3592L127.528 43.6785H115.672L126.801 31.9672Z" fill="#145B8F"/>
<path d="M150.149 21.5473H160.104V24.5753C161.297 22.1707 163.869 20.9684 167.821 20.9684C171.401 20.9684 174.309 22.0371 176.546 24.1745C178.82 26.2823 179.957 29.058 179.957 32.5016C179.957 36.0343 178.82 38.899 176.546 41.0958C174.309 43.2629 171.382 44.3465 167.765 44.3465C164.112 44.3465 161.558 43.159 160.104 40.7841V52.0056H150.149V21.5473ZM159.433 32.7242C159.433 34.3273 159.936 35.6038 160.943 36.5538C161.987 37.4741 163.366 37.9342 165.081 37.9342C166.722 37.9342 168.026 37.4741 168.996 36.5538C170.002 35.6038 170.506 34.357 170.506 32.8133C170.506 31.2696 170.002 30.0079 168.996 29.0283C167.989 28.0486 166.666 27.5588 165.025 27.5588C163.385 27.5588 162.043 28.0338 160.999 28.9837C159.955 29.9337 159.433 31.1805 159.433 32.7242Z" fill="#145B8F"/>
<path d="M142.447 7.73298C142.447 12.9567 137.539 16.7102 132.739 20.5311C128.08 16.8213 123.031 12.9075 123.031 7.73298C123.031 3.46405 127.378 0.00304413 132.739 0.00304413C138.101 0.00304413 142.447 3.46371 142.447 7.73298Z" fill="#145B8F"/>
<path d="M130.151 3.35296C130.967 3.04305 131.88 2.90466 132.781 2.91514C134.196 2.90508 135.604 3.30893 136.707 4.01263C137.701 4.64505 138.442 5.53118 138.767 6.51292C139.169 7.67458 138.964 8.95534 138.228 10.0063C137.716 10.7494 136.947 11.3709 136.043 11.815L132.188 8.95198C132.11 8.8484 132.187 8.72971 132.224 8.62613C132.346 8.34515 132.268 8.01091 132.007 7.79494L129.745 6.07468C129.663 5.99542 129.474 5.9971 129.421 6.099C129.375 6.15394 129.397 6.2223 129.454 6.26633L131.173 7.57686C131.263 7.63138 131.28 7.74545 131.193 7.80752C131.115 7.87 130.982 7.85323 130.914 7.78823L129.247 6.51963C129.164 6.43031 128.973 6.41814 128.907 6.5255C128.816 6.6597 129.011 6.75112 129.111 6.83248L130.674 8.02307C130.821 8.11366 130.687 8.30951 130.513 8.27637C130.383 8.23402 130.299 8.13756 130.197 8.06543L128.767 6.97758C128.69 6.91929 128.578 6.83626 128.467 6.89539C128.342 6.93942 128.339 7.08872 128.443 7.1512L129.874 8.2357C129.989 8.33005 130.13 8.40848 130.217 8.52171C130.268 8.65632 130.027 8.77794 129.907 8.66639L128.238 7.40115C128.172 7.3525 128.089 7.28456 127.988 7.31434C127.846 7.33824 127.8 7.50222 127.915 7.57267L130.099 9.23657C130.401 9.44541 130.756 9.53675 131.13 9.46639C131.336 9.42559 131.508 9.27936 131.645 9.3647L135.155 12.1748C134.12 12.4952 132.988 12.6206 131.885 12.4998C130.388 12.3417 128.966 11.7462 127.978 10.8345C127.099 10.0364 126.571 8.99892 126.515 7.93749C126.402 6.2705 127.511 4.5993 129.29 3.72156L133.285 6.78045C133.421 6.86432 133.415 7.01236 133.392 7.1344C133.258 7.60787 133.483 8.09685 133.827 8.481C134.253 8.95195 134.897 9.31932 135.626 9.4099C136.044 9.46149 136.51 9.38558 136.809 9.13396C137.136 8.86388 137.197 8.45458 137.095 8.10147C136.919 7.50093 136.396 6.98468 135.733 6.67477C135.299 6.47892 134.78 6.35311 134.281 6.44286C134.118 6.47473 133.926 6.4697 133.807 6.36318L130.151 3.35296Z" fill="#F99B1C"/>
</g>
<defs>
<clipPath id="clip0_8_38">
<rect width="180" height="52" fill="white"/>
</clipPath>
</defs>
</svg>
