<svg width="180" height="33" viewBox="0 0 180 33" fill="none" xmlns="http://www.w3.org/2000/svg">
<g clip-path="url(#clip0_8_57)">
<path d="M48.9484 11.7477H52.2116V8.61495C52.2116 4.82959 54.3001 2.34953 58.477 2.34953L60.5655 2.74112V6.52648L58.3465 6.13489C57.0412 6.13489 56.5191 6.91807 56.5191 8.22336V11.7477H60.696V15.533H56.3885V31.3271H52.2116V15.4025H48.9484V11.7477Z" fill="#D60365"/>
<path d="M71.269 11.3561C76.6207 11.3561 81.4503 15.533 81.4503 21.5373C81.4503 27.5417 76.7512 31.7186 71.269 31.7186C65.7868 31.7186 61.0877 27.5417 61.0877 21.5373C61.2183 15.4025 65.9173 11.3561 71.269 11.3561ZM71.269 27.9333C75.1849 27.9333 77.2733 25.0616 77.2733 21.5373C77.2733 18.0131 75.1849 15.1414 71.269 15.1414C67.3531 15.1414 65.2647 18.0131 65.2647 21.5373C65.2647 24.9311 67.3531 27.9333 71.269 27.9333Z" fill="#D60365"/>
<path d="M93.459 11.3561C98.8107 11.3561 103.64 15.533 103.64 21.5373C103.64 27.5417 98.9412 31.7186 93.459 31.7186C87.9768 31.7186 83.2777 27.5417 83.2777 21.5373C83.2777 15.4025 88.1073 11.3561 93.459 11.3561ZM93.459 27.9333C97.3749 27.9333 99.4633 25.0616 99.4633 21.5373C99.4633 18.0131 97.3749 15.1414 93.459 15.1414C89.5431 15.1414 87.4547 18.0131 87.4547 21.5373C87.4547 24.9311 89.5431 27.9333 93.459 27.9333Z" fill="#D60365"/>
<path d="M125.308 31.1966H121.523L121.131 29.4997L120.87 29.2387L120.609 29.4997C119.304 30.805 117.346 31.5882 115.257 31.5882C109.906 31.5882 105.337 27.4113 105.337 21.4069C105.337 15.4025 109.906 11.2256 115.257 11.2256C117.346 11.2256 119.434 12.0087 120.609 13.314L120.87 13.5751L121.131 13.314V2.48006H125.308V31.1966ZM115.518 15.0109C111.602 15.0109 109.514 17.8826 109.514 21.4069C109.514 24.9312 111.602 27.8029 115.518 27.8029C119.043 27.8029 121.523 24.9312 121.523 21.4069C121.523 17.8826 119.043 15.0109 115.518 15.0109Z" fill="#D60365"/>
<path d="M138.1 11.3561C143.452 11.3561 148.282 15.533 148.282 21.5373C148.282 27.5417 143.582 31.7186 138.1 31.7186C132.749 31.7186 127.919 27.5417 127.919 21.5373C127.919 15.4025 132.749 11.3561 138.1 11.3561ZM138.1 27.9333C142.016 27.9333 144.105 25.0616 144.105 21.5373C144.105 18.0131 142.016 15.1414 138.1 15.1414C134.184 15.1414 132.096 18.0131 132.096 21.5373C132.096 24.9311 134.184 27.9333 138.1 27.9333Z" fill="#D60365"/>
<path d="M150.892 11.7477H154.677L155.069 13.8361L155.33 14.0972L155.591 13.8361C156.896 12.1392 158.463 11.3561 160.16 11.3561C160.943 11.3561 161.465 11.3561 162.248 11.7477V15.533H159.768C157.288 15.533 155.33 17.491 155.199 19.971V31.3271H151.023V11.7477H150.892Z" fill="#D60365"/>
<path d="M172.429 19.0573H175.823V18.1436C175.823 15.7941 174.257 14.7498 172.038 14.7498C170.21 14.7498 169.036 15.6635 168.383 17.3604L164.728 16.5772C165.511 13.314 168.383 11.095 172.168 11.095C177.389 11.095 180 13.7056 180 18.7962V30.9355H176.476L176.084 28.3249C174.779 30.2828 172.69 31.1965 169.949 31.1965C166.425 31.1965 163.945 29.1081 163.945 25.1922C163.945 21.5373 167.339 19.0573 172.429 19.0573ZM170.732 27.9333C172.038 27.9333 173.343 27.5417 174.257 26.628C175.301 25.7143 175.823 24.5395 175.823 22.9732V22.5816H172.299C169.819 22.5816 168.252 23.7563 168.252 25.5838C168.252 26.8891 169.166 27.9333 170.732 27.9333Z" fill="#D60365"/>
<path d="M23.4953 30.6744C24.9311 30.1523 35.3735 25.9754 37.4619 25.1922C37.723 25.0617 37.723 24.8006 37.5925 24.6701C37.3314 24.4091 36.9398 24.148 36.1566 24.148C35.1124 24.148 26.1059 27.0196 26.1059 27.0196C26.1059 27.0196 21.9289 27.6723 21.4068 27.6723C20.8847 27.5417 20.7542 27.2807 20.7542 26.8891C20.7542 26.4975 21.0152 26.1059 21.7984 26.1059C22.5816 25.9754 27.1501 25.7143 27.9333 25.3228C28.7165 24.8006 28.5859 24.0175 28.1944 23.8869C27.5417 23.6259 14.6193 23.6259 8.22336 23.7564C7.30966 23.7564 5.35172 23.7564 2.48007 23.7564C3.00219 26.8891 3.9159 29.6302 5.87384 32.1103C7.70125 31.1966 9.78972 30.5439 12.1392 30.6744C13.8361 30.5439 21.7984 31.1966 23.4953 30.6744Z" fill="#D60365"/>
<path d="M39.1589 19.4488H37.462C37.0704 10.3118 29.7608 2.87164 20.6237 2.48005V0.783175C20.6237 0.391588 20.3626 0 19.8405 0C19.4489 0 19.0573 0.261059 19.0573 0.783175V2.48005C9.92025 2.87164 2.48006 10.1813 2.219 19.4488H0.783178C0.391589 19.4488 0 19.7099 0 20.232C0 20.6236 0.261059 21.0152 0.783178 21.0152H39.1589C39.5505 21.0152 39.9421 20.7541 39.9421 20.232C39.9421 19.7099 39.681 19.4488 39.1589 19.4488ZM12.5308 6.13487C11.3561 7.57069 8.74549 11.4866 8.48443 16.9688C8.48443 17.4909 8.09284 17.8825 7.70125 17.8825H6.00436C5.48224 17.8825 5.09066 17.2298 5.22119 16.5772C5.7433 14.3582 7.44019 9.52862 12.4003 6.00434C12.5308 5.87381 12.6614 6.00434 12.5308 6.13487Z" fill="#D60365"/>
</g>
<defs>
<clipPath id="clip0_8_57">
<rect width="180" height="32.1103" fill="white"/>
</clipPath>
</defs>
</svg>
