<svg width="165" height="20" viewBox="0 0 165 20" fill="none" xmlns="http://www.w3.org/2000/svg">
<path d="M11.2764 0.498228C11.1885 0.346689 11.0624 0.220903 10.9106 0.133463C10.7588 0.0460237 10.5866 0 10.4114 0C10.2363 0 10.0641 0.0460237 9.91233 0.133463C9.76052 0.220903 9.63435 0.346689 9.54645 0.498228L6.83245 5.17623C6.73844 5.33802 6.60931 5.47665 6.45458 5.58188C6.29985 5.68711 6.12347 5.75626 5.93845 5.78423L0.851446 6.55223C-0.00255436 6.68223 -0.302554 7.76023 0.363446 8.31223L4.15245 11.4502C4.50245 11.7412 4.66745 12.2002 4.58245 12.6472L3.59145 17.8522C3.55625 18.0371 3.57393 18.2281 3.64245 18.4034C3.71097 18.5786 3.82755 18.731 3.97879 18.843C4.13002 18.9549 4.30979 19.022 4.49741 19.0363C4.68504 19.0507 4.87291 19.0119 5.03945 18.9242L9.82945 16.4022C10.0089 16.3078 10.2087 16.2585 10.4114 16.2585C10.6142 16.2585 10.814 16.3078 10.9934 16.4022L15.7834 18.9242C15.95 19.0119 16.1379 19.0507 16.3255 19.0363C16.5131 19.022 16.6929 18.9549 16.8441 18.843C16.9953 18.731 17.1119 18.5786 17.1804 18.4034C17.249 18.2281 17.2666 18.0371 17.2314 17.8522L16.2404 12.6472C16.1984 12.4275 16.2162 12.2005 16.2918 11.9899C16.3675 11.7794 16.4982 11.593 16.6704 11.4502L20.4604 8.31123C21.1254 7.76123 20.8254 6.68123 19.9704 6.55223L14.8854 5.78423C14.7002 5.7564 14.5237 5.68732 14.3688 5.58208C14.2138 5.47684 14.0846 5.33814 13.9904 5.17623L11.2764 0.498228Z" fill="#7CAB28"/>
<path d="M47.2764 0.498228C47.1885 0.346689 47.0624 0.220903 46.9106 0.133463C46.7588 0.0460237 46.5866 0 46.4114 0C46.2363 0 46.0641 0.0460237 45.9123 0.133463C45.7605 0.220903 45.6344 0.346689 45.5464 0.498228L42.8324 5.17623C42.7384 5.33802 42.6093 5.47665 42.4546 5.58188C42.2998 5.68711 42.1235 5.75626 41.9384 5.78423L36.8514 6.55223C35.9974 6.68223 35.6974 7.76023 36.3634 8.31223L40.1524 11.4502C40.5024 11.7412 40.6674 12.2002 40.5824 12.6472L39.5914 17.8522C39.5563 18.0371 39.5739 18.2281 39.6424 18.4034C39.711 18.5786 39.8275 18.731 39.9788 18.843C40.13 18.9549 40.3098 19.022 40.4974 19.0363C40.685 19.0507 40.8729 19.0119 41.0394 18.9242L45.8294 16.4022C46.0089 16.3078 46.2087 16.2585 46.4114 16.2585C46.6142 16.2585 46.814 16.3078 46.9934 16.4022L51.7834 18.9242C51.95 19.0119 52.1379 19.0507 52.3255 19.0363C52.5131 19.022 52.6929 18.9549 52.8441 18.843C52.9953 18.731 53.1119 18.5786 53.1804 18.4034C53.249 18.2281 53.2666 18.0371 53.2314 17.8522L52.2404 12.6472C52.1984 12.4275 52.2162 12.2005 52.2918 11.9899C52.3675 11.7794 52.4982 11.593 52.6704 11.4502L56.4604 8.31123C57.1254 7.76123 56.8254 6.68123 55.9704 6.55223L50.8854 5.78423C50.7002 5.7564 50.5237 5.68732 50.3688 5.58208C50.2138 5.47684 50.0846 5.33814 49.9904 5.17623L47.2764 0.498228Z" fill="#7CAB28"/>
<path d="M83.2764 0.498228C83.1885 0.346689 83.0624 0.220903 82.9106 0.133463C82.7588 0.0460237 82.5866 0 82.4114 0C82.2363 0 82.0641 0.0460237 81.9123 0.133463C81.7605 0.220903 81.6344 0.346689 81.5464 0.498228L78.8324 5.17623C78.7384 5.33802 78.6093 5.47665 78.4546 5.58188C78.2998 5.68711 78.1235 5.75626 77.9384 5.78423L72.8514 6.55223C71.9974 6.68223 71.6974 7.76023 72.3634 8.31223L76.1524 11.4502C76.5024 11.7412 76.6674 12.2002 76.5824 12.6472L75.5914 17.8522C75.5563 18.0371 75.5739 18.2281 75.6424 18.4034C75.711 18.5786 75.8275 18.731 75.9788 18.843C76.13 18.9549 76.3098 19.022 76.4974 19.0363C76.685 19.0507 76.8729 19.0119 77.0394 18.9242L81.8294 16.4022C82.0089 16.3078 82.2087 16.2585 82.4114 16.2585C82.6142 16.2585 82.814 16.3078 82.9934 16.4022L87.7834 18.9242C87.95 19.0119 88.1379 19.0507 88.3255 19.0363C88.5131 19.022 88.6929 18.9549 88.8441 18.843C88.9953 18.731 89.1119 18.5786 89.1804 18.4034C89.249 18.2281 89.2666 18.0371 89.2314 17.8522L88.2404 12.6472C88.1984 12.4275 88.2162 12.2005 88.2918 11.9899C88.3675 11.7794 88.4982 11.593 88.6704 11.4502L92.4604 8.31123C93.1254 7.76123 92.8254 6.68123 91.9704 6.55223L86.8854 5.78423C86.7002 5.7564 86.5237 5.68732 86.3688 5.58208C86.2138 5.47684 86.0846 5.33814 85.9904 5.17623L83.2764 0.498228Z" fill="#7CAB28"/>
<path d="M119.276 0.498228C119.189 0.346689 119.062 0.220903 118.911 0.133463C118.759 0.0460237 118.587 0 118.411 0C118.236 0 118.064 0.0460237 117.912 0.133463C117.761 0.220903 117.634 0.346689 117.546 0.498228L114.832 5.17623C114.738 5.33802 114.609 5.47665 114.455 5.58188C114.3 5.68711 114.123 5.75626 113.938 5.78423L108.851 6.55223C107.997 6.68223 107.697 7.76023 108.363 8.31223L112.152 11.4502C112.502 11.7412 112.667 12.2002 112.582 12.6472L111.591 17.8522C111.556 18.0371 111.574 18.2281 111.642 18.4034C111.711 18.5786 111.828 18.731 111.979 18.843C112.13 18.9549 112.31 19.022 112.497 19.0363C112.685 19.0507 112.873 19.0119 113.039 18.9242L117.829 16.4022C118.009 16.3078 118.209 16.2585 118.411 16.2585C118.614 16.2585 118.814 16.3078 118.993 16.4022L123.783 18.9242C123.95 19.0119 124.138 19.0507 124.325 19.0363C124.513 19.022 124.693 18.9549 124.844 18.843C124.995 18.731 125.112 18.5786 125.18 18.4034C125.249 18.2281 125.267 18.0371 125.231 17.8522L124.24 12.6472C124.198 12.4275 124.216 12.2005 124.292 11.9899C124.367 11.7794 124.498 11.593 124.67 11.4502L128.46 8.31123C129.125 7.76123 128.825 6.68123 127.97 6.55223L122.885 5.78423C122.7 5.7564 122.524 5.68732 122.369 5.58208C122.214 5.47684 122.085 5.33814 121.99 5.17623L119.276 0.498228Z" fill="#7CAB28"/>
<path d="M155.276 0.498228C155.189 0.346689 155.062 0.220903 154.911 0.133463C154.759 0.0460237 154.587 0 154.411 0C154.236 0 154.064 0.0460237 153.912 0.133463C153.761 0.220903 153.634 0.346689 153.546 0.498228L150.832 5.17623C150.738 5.33802 150.609 5.47665 150.455 5.58188C150.3 5.68711 150.123 5.75626 149.938 5.78423L144.851 6.55223C143.997 6.68223 143.697 7.76023 144.363 8.31223L148.152 11.4502C148.502 11.7412 148.667 12.2002 148.582 12.6472L147.591 17.8522C147.556 18.0371 147.574 18.2281 147.642 18.4034C147.711 18.5786 147.828 18.731 147.979 18.843C148.13 18.9549 148.31 19.022 148.497 19.0363C148.685 19.0507 148.873 19.0119 149.039 18.9242L153.829 16.4022C154.009 16.3078 154.209 16.2585 154.411 16.2585C154.614 16.2585 154.814 16.3078 154.993 16.4022L159.783 18.9242C159.95 19.0119 160.138 19.0507 160.325 19.0363C160.513 19.022 160.693 18.9549 160.844 18.843C160.995 18.731 161.112 18.5786 161.18 18.4034C161.249 18.2281 161.267 18.0371 161.231 17.8522L160.24 12.6472C160.198 12.4275 160.216 12.2005 160.292 11.9899C160.367 11.7794 160.498 11.593 160.67 11.4502L164.46 8.31123C165.125 7.76123 164.825 6.68123 163.97 6.55223L158.885 5.78423C158.7 5.7564 158.524 5.68732 158.369 5.58208C158.214 5.47684 158.085 5.33814 157.99 5.17623L155.276 0.498228Z" fill="#7CAB28"/>
</svg>
